<svg xmlns="http://www.w3.org/2000/svg" viewBox="0 0 333.14 324.39"><g id="Layer_2" data-name="Layer 2"><g id="Layer_1-2" data-name="Layer 1"><path d="M166.63,324.29H9.11c-8.71,0-8.81-.15-8.86-9,0-4.5-.52-9,0-13.47.18-1.68,2.39-4.37,3.83-4.47,4.57-.33,4.88-2.92,4.87-6.42q-.08-34.5,0-69c0-8,.27-8.23,8.05-8.24,7.34,0,14.68.14,22-.05,4.29-.11,6,1.55,5.91,5.87-.19,8.83.06,17.67-.1,26.5-.07,3.91,1.51,5.42,5.32,5.3,4.83-.15,9.67.12,14.5-.08,4.36-.18,6,1.8,5.93,6-.1,11.34.11,22.67-.09,34-.07,4.22,1.18,6.25,5.66,5.94,3.48-.24,7-.11,10.5-.05,2.92.06,4.31-1.28,4.26-4.2,0-1.67,0-3.33,0-5q0-83.5,0-167c0-2.83,0-5.67.2-8.49.35-4,.3-7.32-5.22-7.59-1,0-2.7-3.48-2.58-5.26.29-4.41-1.25-6-5.61-5.94q-21,.21-42,0c-4.19,0-6,1.28-5.94,5.75.23,11.24,1.32,11-11.19,11-4.33,0-8.67-.09-13,0-3.77.06-5.35-1.61-5.33-5.45.08-14.34,0-28.67-.08-43,0-3.16,1.33-4.66,4.43-4.67,5.34,0,10.7.3,16-.15,2.81-.24,6.05-1.11,8.15-2.84,21.09-17.38,41.91-35.07,63-52.4a9.69,9.69,0,0,1,8-1.46C153.93,20.41,208,40.77,262.11,61c10.23,3.82,20.13,9,31.67,7.74,3.58-.39,5,1.93,4.92,5.37-.09,6.5-.13,13,0,19.5.05,3.64-1.58,5.27-5.15,5s-5,1.5-5,5c.06,12.67.09,25.34,0,38,0,3.7,1.52,4.9,5.09,5,8.77.17,8.77.31,8.76,9,0,7.5-.12,15,0,22.5.08,4.1-1.62,5.63-5.66,5.55q-13-.24-26,0c-4.11.07-5.72-1.73-5.68-5.68.08-8.5.09-17,0-25.5-.06-4.58,2.12-6.09,6.48-6.08,8,0,8-.14,8-8,0-11.17-.07-22.34.05-33.5,0-4.24-1.19-6.73-6-6.45-1.33.08-3.6-.51-3.93-1.38-1.56-4.07-4.84-3.47-7.93-3.47q-67.52,0-135,0c-5.79,0-8.34-.8-8,7.25.06,1.38-2,3.81-3.48,4.08-3.16.62-4.26,2.18-4.28,5.07,0,1.5,0,3,0,4.5q0,86.5,0,173c0,1.34.07,2.67,0,4-.11,3.92,1.52,5.86,5.68,5.62,4.32-.25,8.71.18,13-.39,1.44-.19,3.32-2.33,3.72-3.9.63-2.51.21-5.29.21-8q0-81,0-162c0-7.14.19-7.38,7.19-7.38q36.51,0,73,0c7.82,0,7.88,0,7.88,7.7q0,82,0,164c0,.5,0,1,0,1.5,0,7.53,4.79,11,11.7,8,1.33-.58,2.3-3.44,2.32-5.27.19-13.67.09-27.33.11-41,0-6.78.74-7.52,7.38-7.6,3.67-.05,7.33-.09,11-.05,3.16,0,4.51-1.49,4.49-4.6-.05-5.83.17-11.67,0-17.49-.14-4.28,1.58-6.14,5.85-6,5.33.12,10.67-.08,16,0,3.62.08,5.24-1.5,5.05-5.09-.08-1.66,0-3.33,0-5-.19-8.08,0-8.28,7.8-8.31,8.17,0,16.34.2,24.5-.07,4.88-.17,6.3,1.78,6.28,6.48-.16,29.16,0,58.33-.15,87.5,0,4.33.25,7.55,5.92,7.27,1.07,0,3.17,2.52,3.24,4a162.24,162.24,0,0,1-.19,19c-.09,1.35-2.16,3-3.69,3.69s-3.6.27-5.43.27ZM101,10.37c0,10.76,0,20.06,0,29.35,0,13.92-.89,11.78,11.55,12,.67,0,1.34,0,2,0,2.87-.06,4.33,1.23,4.28,4.2-.06,3.33,0,6.66,0,10,0,7.73.09,7.79,7.82,7.8q67.71.14,135.42.26a37.44,37.44,0,0,0,4.2-.46l.22-1.28ZM90.29,15.21a32.34,32.34,0,0,0-3.05,1.93Q66.57,34.38,45.92,51.67c-4.59,3.84-9.5,7.39-13.54,11.74-1.67,1.79-2,5.4-1.74,8.07.08.94,3.72,2.17,5.74,2.2,13.47.2,26.94,0,40.41.18,4.65.07,6.87-1.38,6.52-6.25a57.25,57.25,0,0,1-.07-11c.2-1.69,1.85-4.41,3.1-4.56,4.21-.53,4.56-3,4.55-6.28,0-8.81.1-17.63.09-26.44A28.31,28.31,0,0,0,90.29,15.21ZM195.41,192.38c11.89-.17,11.08,1.47,11.14-10.87.07-13,.39-11.16-11.28-11.24-12-.09-11-.78-10.92,11.12C184.38,193,183.07,192.39,195.41,192.38Zm-.14,16.92c-12.57-.06-10.77-.41-10.91,10.56-.16,12.82-.59,11.62,11.53,11.55,10.85-.06,10.75,1.68,10.63-10.85S207.68,209.4,195.27,209.3Zm11.24-66.6c.1-13.32.46-11.42-11.48-11.49-11.46-.07-10.71-1-10.69,10.82,0,11.37-1.53,11.38,11.34,11.29C207.61,153.24,206.46,154.24,206.51,142.7Zm-56.95,77.54c0,11.21,0,11.26,10.89,11.19,11.45-.07,11.45,1.73,11.33-11.22-.12-11.81.91-10.88-11.16-10.91C148.24,209.27,149.64,208.72,149.56,220.24Zm0,39.06c0,11.22,0,11.29,10.92,11.2s11.43,2.05,11.29-11.31c-.11-11,0-11-11.15-11S149.57,248.19,149.55,259.3Zm57,.13c0-12.08.75-11.21-10.87-11.25-12.84-.05-11.24-.28-11.32,11.3-.08,11,0,11.12,11.1,11C206.18,270.38,206.64,272.5,206.55,259.43ZM171.79,142c.06-12.28,0-10.77-10.89-10.79-12,0-11.46-1-11.34,11.31.1,10.48-1.8,11,10.88,10.8C172.24,153.17,171.8,154.82,171.79,142Zm0,39c0-12.06.27-10.63-10.91-10.73h-.5c-10.76,0-10.76,0-10.81,10.92-.06,11.53-1.05,11.29,11,11.19C172.15,192.28,171.88,194,171.77,181Z"/></g></g></svg>